<svg xmlns="http://www.w3.org/2000/svg" width="309.595" height="241.836" viewBox="0 0 309.595 241.836">
  <g id="helper1" transform="translate(-32.996 -86.096)">
    <rect id="Rectangle_3687" data-name="Rectangle 3687" width="260" height="171" rx="8" transform="translate(52 156)" fill="#dfdfdf"/>
    <g id="Group_8261" data-name="Group 8261" transform="translate(-140.912 -97.404)">
      <g id="Group_8248" data-name="Group 8248" transform="translate(176.928 232.153)">
        <circle id="Ellipse_702" data-name="Ellipse 702" cx="4.433" cy="4.433" r="4.433" transform="translate(37.189 54.118)" fill="#3dc9b9"/>
        <circle id="Ellipse_703" data-name="Ellipse 703" cx="4.433" cy="4.433" r="4.433" transform="translate(37.189 80.707)" fill="#3dc9b9"/>
        <circle id="Ellipse_704" data-name="Ellipse 704" cx="4.433" cy="4.433" r="4.433" transform="translate(37.189 107.296)" fill="#3dc9b9"/>
        <rect id="Rectangle_3647" data-name="Rectangle 3647" width="134.206" height="5.064" transform="translate(74.22 56.019)" fill="#fff"/>
        <rect id="Rectangle_3648" data-name="Rectangle 3648" width="134.206" height="5.064" transform="translate(74.22 82.608)" fill="#fff"/>
        <rect id="Rectangle_3649" data-name="Rectangle 3649" width="134.206" height="5.064" transform="translate(74.22 109.198)" fill="#fff"/>
      </g>
    </g>
    <path id="Rectangle_3654" data-name="Rectangle 3654" d="M3,0H26a0,0,0,0,1,0,0V20a0,0,0,0,1,0,0H3a3,3,0,0,1-3-3V3A3,3,0,0,1,3,0Z" transform="translate(289 270)" fill="#fff"/>
    <rect id="Rectangle_3652" data-name="Rectangle 3652" width="110" height="32" rx="5" transform="translate(225 170)" fill="#fff"/>
    <g id="undraw_Group_chat_re_frmo" transform="translate(32.996 86.096)">
      <path id="Path_3063" data-name="Path 3063" d="M220.3,586.69a3.152,3.152,0,0,0-4.8-.547l-9.955-5.138.619,5.788,9.358,3.992a3.169,3.169,0,0,0,4.78-4.1Z" transform="translate(-174.401 -410.019)" fill="#a0616a"/>
      <path id="Path_3064" data-name="Path 3064" d="M172.085,543a1.412,1.412,0,0,1-1.15.012l-9.455-4.1a14.537,14.537,0,0,1-7.355-7.115L149.153,521.3a4.544,4.544,0,1,1,7.179-5.574l8.738,16.211,8.068,6.095a1.415,1.415,0,0,1,.5,1.543l-.792,2.558a1.413,1.413,0,0,1-.478.693A1.4,1.4,0,0,1,172.085,543Z" transform="translate(-135.034 -363.998)" fill="#3dc9b9"/>
      <circle id="Ellipse_706" data-name="Ellipse 706" cx="7.7" cy="7.7" r="7.7" transform="translate(6.2 129.565)" fill="#a0616a"/>
      <path id="Path_3065" data-name="Path 3065" d="M54.287,670.179H58.13l1.829-14.824H54.286Z" transform="translate(-37.268 -431.911)" fill="#a0616a"/>
      <path id="Path_3066" data-name="Path 3066" d="M0,0H12.079V4.667H4.667A4.667,4.667,0,0,1,0,0H0Z" transform="translate(28.273 241.837) rotate(179.997)" fill="#2f2e41"/>
      <path id="Path_3067" data-name="Path 3067" d="M14.287,670.179H18.13l1.829-14.824H14.286Z" transform="translate(-9.808 -431.911)" fill="#a0616a"/>
      <path id="Path_3068" data-name="Path 3068" d="M0,0H12.079V4.667H4.667A4.667,4.667,0,0,1,0,0H0Z" transform="translate(15.734 241.837) rotate(179.997)" fill="#2f2e41"/>
      <path id="Path_3069" data-name="Path 3069" d="M115.449,669.132a1.41,1.41,0,0,1-.337-1.116l6.729-50.466,16.718,2.839,1.784-1.071L135.729,667.2a1.415,1.415,0,0,1-1.284,1.243l-5.062.422a1.41,1.41,0,0,1-1.526-1.487l1.311-22.8a.157.157,0,0,0-.308-.05l-6.484,24.044a1.413,1.413,0,0,1-1.362,1.044h-4.5a1.41,1.41,0,0,1-1.061-.482Z" transform="translate(-112.312 -435.107)" fill="#2f2e41"/>
      <path id="Path_3070" data-name="Path 3070" d="M127.827,544.834a1.108,1.108,0,0,0-1.416-.059l-3.342,2.6a1.41,1.41,0,0,1-2.222-.723c-1.639-5.742-5.354-20.194-4.439-30.366a10.654,10.654,0,0,1,11.1-9.78c3.829.255,6.349,2.464,7.488,6.566,2.8,10.07,5.871,28.541,6.459,32.142a1.4,1.4,0,0,1-.67,1.439,10.326,10.326,0,0,1-5.233,1.472A11.479,11.479,0,0,1,127.827,544.834Z" transform="translate(-113.112 -358.858)" fill="#3dc9b9"/>
      <path id="Path_3071" data-name="Path 3071" d="M132.666,610.505a3.152,3.152,0,0,0-3.442-3.394l-4.662-10.186-3.085,4.937,4.9,8.916a3.169,3.169,0,0,0,6.289-.272Z" transform="translate(-116.69 -420.948)" fill="#a0616a"/>
      <path id="Path_3072" data-name="Path 3072" d="M113.784,550.395a1.412,1.412,0,0,1-.913-.7l-4.909-9.063a14.537,14.537,0,0,1-1.4-10.138l2.564-11.324a4.544,4.544,0,1,1,9.089.044l-3.129,18.148,2.587,9.775a1.415,1.415,0,0,1-.561,1.521l-2.2,1.524a1.412,1.412,0,0,1-.8.251A1.393,1.393,0,0,1,113.784,550.395Z" transform="translate(-106.206 -364.463)" fill="#3dc9b9"/>
      <path id="Path_3073" data-name="Path 3073" d="M30.146,460.644l-2.821,11.912L31.4,482.588l-2.821-9.718Z" transform="translate(-18.759 -298.239)" opacity="0.2"/>
      <path id="Path_3074" data-name="Path 3074" d="M121.175,457.245a5.185,5.185,0,0,1-2-.362c-.28-.108-.571-.2-.851-.3a6.9,6.9,0,0,1-4.157-6.234,8.977,8.977,0,0,1,3.349-6.912,12.962,12.962,0,0,1,7.315-2.765c2.845-.217,6.048.5,7.638,2.874a2.5,2.5,0,0,1,.468,2.157,1.38,1.38,0,0,1-.389.6c-.71.632-1.418.157-2.141.115A2.367,2.367,0,0,0,128.2,448.1a5.1,5.1,0,0,0,.08,2.944,7.353,7.353,0,0,1,.371,1.79,1.8,1.8,0,0,1-.746,1.585,2.054,2.054,0,0,1-2.06-.217,14.313,14.313,0,0,0-1.831-1.173,1.619,1.619,0,0,0-1.965.4,2.173,2.173,0,0,0-.248.717c-.351,1.6-.27,1.5-.621,3.1Z" transform="translate(-111.669 -313.649)" fill="#2f2e41"/>
      <path id="Path_3079" data-name="Path 3079" d="M809.464,385.456H710.089a5.337,5.337,0,0,0-5.329,5.329v21.944a5.337,5.337,0,0,0,5.329,5.329h99.375a5.337,5.337,0,0,0,5.329-5.329V390.785A5.337,5.337,0,0,0,809.464,385.456Zm4.7,27.273a4.708,4.708,0,0,1-4.7,4.7H710.089a4.708,4.708,0,0,1-4.7-4.7V390.785a4.708,4.708,0,0,1,4.7-4.7h99.375a4.708,4.708,0,0,1,4.7,4.7Z" transform="translate(-609.122 -376.771)" fill="#3f3d56"/>
      <path id="Path_3080" data-name="Path 3080" d="M1052.852,384.743a.312.312,0,0,1-.092-.222v-7.98a.313.313,0,0,1,.627,0v7.98a.314.314,0,0,1-.535.222Z" transform="translate(-756.03 -287.436)" fill="#fff"/>
      <path id="Path_3081" data-name="Path 3081" d="M1040.124,389.491a.313.313,0,0,1,.222-.535h7.98a.313.313,0,1,1,0,.627h-7.98a.312.312,0,0,1-.222-.092Z" transform="translate(-747.292 -296.174)" fill="#fff"/>
      <path id="Path_3082" data-name="Path 3082" d="M1010.926,696.162h-15.05c0,.433-15.511.784-15.511.784a4.029,4.029,0,0,0-.661.627,3.891,3.891,0,0,0-.909,2.508v.627a3.92,3.92,0,0,0,3.919,3.919h28.214a3.922,3.922,0,0,0,3.919-3.919v-.627A3.924,3.924,0,0,0,1010.926,696.162Z" transform="translate(-705.25 -490.076)" fill="#3f3d56"/>
      <rect id="Rectangle_3651" data-name="Rectangle 3651" width="4.075" height="26.333" transform="translate(289.686 214.395)" fill="#3f3d56"/>
      <path id="Path_3083" data-name="Path 3083" d="M1019.875,797.6c0,.44-6.175.17-13.793.17s-13.793.27-13.793-.17,6.175-3.932,13.793-3.932S1019.875,797.158,1019.875,797.6Z" transform="translate(-714.515 -557.013)" fill="#3f3d56"/>
      <circle id="Ellipse_715" data-name="Ellipse 715" cx="8.778" cy="8.778" r="8.778" transform="translate(284.253 153.243)" fill="#2f2e41"/>
      <path id="Path_3084" data-name="Path 3084" d="M852.652,669.71h-3.843l-1.829-14.824h5.673Z" transform="translate(-581.464 -432.589)" fill="#ffb8b8"/>
      <path id="Path_3085" data-name="Path 3085" d="M833.836,698.671h7.412v4.667H829.169A4.667,4.667,0,0,1,833.836,698.671Z" transform="translate(-569.237 -462.648)" fill="#2f2e41"/>
      <path id="Path_3086" data-name="Path 3086" d="M837.9,660.638l-3.667-1.151,2.693-14.691,5.412,1.7Z" transform="translate(-572.717 -425.662)" fill="#ffb8b8"/>
      <path id="Path_3087" data-name="Path 3087" d="M4.667,0h7.412V4.667H0A4.667,4.667,0,0,1,4.667,0Z" transform="translate(254.777 230.559) rotate(17.423)" fill="#2f2e41"/>
      <path id="Path_3088" data-name="Path 3088" d="M975.8,676.034a11.877,11.877,0,0,0-.477-2.2l-.718-.9-1.868-2.345-.081,0c-.138.006-.712.038-1.6.107h-.01c-.549.044-1.22.1-1.981.172-.2.022-.411.041-.627.063V674.2h3.919a.785.785,0,0,1,.777.683c0,.034.006.066.006.1a.784.784,0,0,1-.784.784H949.6a8.892,8.892,0,0,0-.834.627,4.665,4.665,0,0,0-1.646,2.464c-1.329,5.843-3.752,16.74-4.467,19.941a1.423,1.423,0,0,0,.423,1.342,1.389,1.389,0,0,0,.461.285l2.828,1.06a1.5,1.5,0,0,0,.36.085c.016,0,.028,0,.044,0a.823.823,0,0,0,.088,0,1.421,1.421,0,0,0,1.32-.909l2.232-5.856,3.439-9.028,1.361-3.571c1.577.37,14.806,3.3,19.235-1.42a5.039,5.039,0,0,0,1.016-1.6,6.522,6.522,0,0,0,.342-3.16Z" transform="translate(-680.416 -472.517)" fill="#2f2e41"/>
      <path id="Path_3089" data-name="Path 3089" d="M988.562,681.692c-.069-.279-.147-.567-.238-.859l-2.586-3.248-.081,0c-.163.009-.937.05-2.126.147-1.348.113-3.232.295-5.348.58-.063.006-.128.016-.191.025-.207.028-.417.056-.627.088v.58h3.919a.785.785,0,0,1,.777.683c0,.034.006.066.006.1a.784.784,0,0,1-.784.784h-13.85c-.6.2-1.188.4-1.746.627-2.928,1.16-5.119,2.68-5.568,4.658-.15.665-.317,1.4-.492,2.173-.652,2.89-1.445,6.43-2.163,9.646v0c-.147.665-.295,1.31-.436,1.937-.6,2.7-1.107,4.981-1.376,6.182l-.019.1v.006a1.463,1.463,0,0,0,.088.718l0,0v0a1.389,1.389,0,0,0,.408.561,1.439,1.439,0,0,0,.4.235l2.828,1.06a1.437,1.437,0,0,0,.492.091,1.391,1.391,0,0,0,.674-.172,1.411,1.411,0,0,0,.646-.737l6.088-15.975.944-2.48c1.577.37,14.806,3.295,19.235-1.42a5.3,5.3,0,0,0,1.4-3.47A9.306,9.306,0,0,0,988.562,681.692Z" transform="translate(-689.343 -477.322)" fill="#2f2e41"/>
      <path id="Path_3090" data-name="Path 3090" d="M1025.271,596.86c-.05-.06-.1-.119-.16-.176a7.672,7.672,0,0,0-6.574-2.317,24.876,24.876,0,0,0-3.107.611,7.832,7.832,0,0,0-3.5,1.966,7.654,7.654,0,0,0-2.323,5.705c.013.429.016.868.01,1.313,0,.207,0,.417-.006.627h3.091a1.669,1.669,0,0,1,.4.047,1.728,1.728,0,0,1,1.326,1.677V620.9c.21.06.42.119.627.182.066.022.129.041.191.06l.213.066q.955.3,1.865.627h1.022a.785.785,0,0,1,.777.683c.213.085.42.169.624.254.724.3,1.411.6,2.041.893.85.389,1.605.759,2.238,1.082a1.44,1.44,0,0,0,.643.157,1.381,1.381,0,0,0,.815-.27,1.723,1.723,0,0,0,.141-.116,1.412,1.412,0,0,0,.43-1.248,40.128,40.128,0,0,1-.282-7.43c.088-2.085.276-4.223.52-6.289.131-1.119.279-2.216.433-3.273.147-1.009.3-1.978.458-2.893A7.714,7.714,0,0,0,1025.271,596.86Z" transform="translate(-726.4 -420.145)" fill="#3dc9b9"/>
      <path id="Path_3091" data-name="Path 3091" d="M1002.913,602.635a3.7,3.7,0,0,0-.5-.172,3.6,3.6,0,0,0-4.245,2.047l-2.154,4.972-.27.627h7.439a1.669,1.669,0,0,1,.4.047l.251-.58.953-2.2A3.608,3.608,0,0,0,1002.913,602.635Z" transform="translate(-716.891 -425.664)" fill="#3dc9b9"/>
      <circle id="Ellipse_716" data-name="Ellipse 716" cx="7.7" cy="7.7" r="7.7" transform="translate(285.011 156.375)" fill="#ffb8b8"/>
      <path id="Path_3092" data-name="Path 3092" d="M1014.933,538.434a27.771,27.771,0,0,0,12.015,3.959l-1.266-1.517a9.3,9.3,0,0,0,2.875.571,3.149,3.149,0,0,0,2.566-1.2,2.928,2.928,0,0,0,.2-2.705,5.548,5.548,0,0,0-1.745-2.182,10.389,10.389,0,0,0-9.669-1.728,6.209,6.209,0,0,0-2.888,1.853c-.73.9-2.135,1.7-1.761,2.8Z" transform="translate(-730.061 -378.142)" fill="#2f2e41"/>
      <path id="Path_3093" data-name="Path 3093" d="M982.853,515.927a23.662,23.662,0,0,0-8.609-5.567,12.113,12.113,0,0,0-6.522-.809,6.216,6.216,0,0,0-4.84,4.078,7.7,7.7,0,0,0,.786,5.268c.77,1.643,1.8,3.167,2.422,4.871a11.119,11.119,0,0,1-11.188,14.91c2.138.287,4.108,1.291,6.2,1.826s4.556.5,6.109-1c1.643-1.584,1.676-4.159,1.6-6.44l-.354-10.171a12.922,12.922,0,0,1,.512-5.127,4.4,4.4,0,0,1,3.835-3.012,6.292,6.292,0,0,1,3.523,1.589,7.2,7.2,0,0,0,3.47,1.736c1.306.117,2.8-.85,2.7-2.158Z" transform="translate(-688.848 -361.849)" fill="#2f2e41"/>
      <path id="Path_3094" data-name="Path 3094" d="M1037.278,632.409l-4.4.119-.32,3.088-.072.715-6.884,3.091-.627.282v5.5l.627-.179,1.981-.564h.01l8.727-2.486.1-.028a3.41,3.41,0,0,0,2.464-3.245l.022-3.646.019-2.687Z" transform="translate(-736.958 -446.278)" fill="#ffb8b8"/>
      <path id="Path_3095" data-name="Path 3095" d="M1052.992,605.613a3.606,3.606,0,0,0-7.2.442l.48,7.825a1.407,1.407,0,0,0,.574,1.047,1.39,1.39,0,0,0,.922.273l3.361-.207,1.019-.063a1.374,1.374,0,0,0,.972-.473.978.978,0,0,0,.075-.094,1.4,1.4,0,0,0,.276-.928Z" transform="translate(-751.243 -425.588)" fill="#3dc9b9"/>
      <path id="Path_3096" data-name="Path 3096" d="M955.987,642.367h-.4v-.041c-.207.028-.417.056-.627.088v.58h2.9Q956.94,642.665,955.987,642.367Zm0,0h-.4v-.041c-.207.028-.417.056-.627.088v.58h2.9Q956.94,642.665,955.987,642.367Zm2.887,0h-3.292V627.476a2.354,2.354,0,0,0-1.7-2.257,2.206,2.206,0,0,0-.649-.094h-27.9a2.354,2.354,0,0,0-2.351,2.351v15.361a2.352,2.352,0,0,0,2.351,2.351h33.543a1.412,1.412,0,0,0,1.4-1.257,1.2,1.2,0,0,0,.01-.154A1.413,1.413,0,0,0,958.874,642.367Zm.784,1.411a.784.784,0,0,1-.784.784H925.331a1.725,1.725,0,0,1-1.724-1.724V627.476a1.725,1.725,0,0,1,1.724-1.724h27.9a1.662,1.662,0,0,1,.4.047,1.727,1.727,0,0,1,1.326,1.677v15.518h3.919a.785.785,0,0,1,.777.683C959.654,643.712,959.658,643.743,959.658,643.778Zm-3.671-1.411h-.4v-.041c-.207.028-.417.056-.627.088v.58h2.9Q956.94,642.665,955.987,642.367Z" transform="translate(-666.934 -441.308)" fill="#3f3d56"/>
      <circle id="Ellipse_717" data-name="Ellipse 717" cx="1.881" cy="1.881" r="1.881" transform="translate(270.466 191.969)" fill="#3dc9b9"/>
      <path id="Path_3097" data-name="Path 3097" d="M406.321,158.728a2.73,2.73,0,0,0,.013.429l-9.844,8.262-2.936-1.063-2.183,4.221,6.418,3.055,10.762-12.077a2.72,2.72,0,1,0-2.23-2.827Z" transform="translate(-301.976 -136.355)" fill="#ffb8b8"/>
      <path id="Path_3098" data-name="Path 3098" d="M371.065,186.225l-9.506-3.431a3.5,3.5,0,1,1,2.375-6.581l9.506,3.431a1.166,1.166,0,0,1,.7,1.493l-1.584,4.388A1.168,1.168,0,0,1,371.065,186.225Z" transform="translate(-279.923 -149.979)" fill="#2f2e41"/>
      <path id="Path_3099" data-name="Path 3099" d="M268.529,195.415h3.177l1.511-12.254h-4.689Z" transform="translate(-184.349 -125.743)" fill="#ffb8b8"/>
      <path id="Path_3100" data-name="Path 3100" d="M0,0H9.985V3.858H3.858A3.858,3.858,0,0,1,0,0H0Z" transform="translate(93.484 72.623) rotate(179.997)" fill="#2f2e41"/>
      <path id="Path_3101" data-name="Path 3101" d="M243.484,187.208l2.6,1.827,8.285-9.155-3.835-2.7Z" transform="translate(-167.155 -121.639)" fill="#ffb8b8"/>
      <path id="Path_3102" data-name="Path 3102" d="M0,0H9.985V3.858H3.858A3.858,3.858,0,0,1,0,0H0Z" transform="matrix(-0.818, -0.575, 0.575, -0.818, 81.929, 72.706)" fill="#2f2e41"/>
      <path id="Path_3103" data-name="Path 3103" d="M373.316,244.677s7.928-.935,6.505,4.209-17.28,9.588-17.28,9.588Z" transform="translate(-282.185 -197.078)" fill="#ffb8b8"/>
      <circle id="Ellipse_718" data-name="Ellipse 718" cx="6.365" cy="6.365" r="6.365" transform="translate(79.31 8.618)" fill="#ffb8b8"/>
      <path id="Path_3104" data-name="Path 3104" d="M308.007,204.463c-3.622-4.217-4.889-10.689.887-16.072a19.035,19.035,0,0,1,4.79-3.181l4.655-13.018a7.094,7.094,0,0,1,6.555-4.715,6.788,6.788,0,0,1,6.585,4.235,5.893,5.893,0,0,1,.183,4.173,67.036,67.036,0,0,1-5.431,12.427l.241,1.926,11.766,1.046-.11.178c-.057.093-5.816,8.867-13.182,14.69a12.106,12.106,0,0,1-7.582,2.816A12.564,12.564,0,0,1,308.007,204.463Z" transform="translate(-242.63 -144.121)" fill="#2f2e41"/>
      <path id="Path_3105" data-name="Path 3105" d="M295.113,109.965a11.14,11.14,0,0,0,2-4.8c.615-2.7,1.09-5.5,2.456-7.909s3.876-4.41,6.643-4.258c2.751.151,4.976,2.365,6.157,4.884a2.19,2.19,0,0,1,1.779.086,1.618,1.618,0,0,1,.461,2.454,5.88,5.88,0,0,1,4.788-.119,5.788,5.788,0,0,1,3.506,4.912,3.156,3.156,0,0,1-.839,2.367c-1.221,1.257-2.948.824-4.484.5-1.451-.3-3.217-.384-4.034,1a2.591,2.591,0,0,0-.252,1.893,6.681,6.681,0,0,0,2.326,3.26l.162.3a7.116,7.116,0,0,1-3.656-13.72h0a1.262,1.262,0,0,1-1.133-1.891,6,6,0,0,0-3.062-.764,5.562,5.562,0,0,0-4.159,2.848,17.2,17.2,0,0,0-1.734,4.922,15.1,15.1,0,0,1-1.836,4.878,7.763,7.763,0,0,1-12.438.638A6.2,6.2,0,0,0,295.113,109.965Z" transform="translate(-230.846 -92.986)" fill="#2f2e41"/>
      <g id="Group_8250" data-name="Group 8250">
        <path id="Path_3077" data-name="Path 3077" d="M894.8,450.724H839.626a2.508,2.508,0,0,1,0-5.016H894.8a2.508,2.508,0,0,1,0,5.016Z" transform="translate(-705.988 -418.135)" fill="#ccc"/>
        <path id="Path_3078" data-name="Path 3078" d="M858.749,416.724H839.626a2.508,2.508,0,0,1,0-5.016h19.123a2.508,2.508,0,0,1,0,5.016Z" transform="translate(-705.988 -394.793)" fill="#ccc"/>
        <path id="Path_3110" data-name="Path 3110" d="M809.464,385.456H710.089a5.337,5.337,0,0,0-5.329,5.329v21.944a5.337,5.337,0,0,0,5.329,5.329h99.375a5.337,5.337,0,0,0,5.329-5.329V390.785A5.337,5.337,0,0,0,809.464,385.456Zm4.7,27.273a4.708,4.708,0,0,1-4.7,4.7H710.089a4.708,4.708,0,0,1-4.7-4.7V390.785a4.708,4.708,0,0,1,4.7-4.7h99.375a4.708,4.708,0,0,1,4.7,4.7Z" transform="translate(-609.123 -376.771)" fill="#3f3d56"/>
        <circle id="Ellipse_719" data-name="Ellipse 719" cx="9.252" cy="9.252" r="9.252" transform="translate(101.763 15.822)" fill="#3dc9b9"/>
        <path id="Path_3106" data-name="Path 3106" d="M459.17,165.638a.4.4,0,0,1-.118-.284V155.114a.4.4,0,0,1,.8,0v10.239a.4.4,0,0,1-.687.284Z" transform="translate(-348.44 -135.361)" fill="#fff"/>
        <path id="Path_3107" data-name="Path 3107" d="M442.838,171.73a.4.4,0,0,1,.284-.687h10.239a.4.4,0,0,1,0,.8H443.123a.4.4,0,0,1-.284-.118Z" transform="translate(-337.228 -146.574)" fill="#fff"/>
      </g>
      <path id="Path_3108" data-name="Path 3108" d="M399.414,189.578a2.723,2.723,0,0,0-.171.394l-12.422,3.294-2.205-2.21-3.77,2.893,4.511,5.493,14.874-6.357a2.72,2.72,0,1,0-.817-3.507Z" transform="translate(-294.75 -158.317)" fill="#ffb8b8"/>
      <path id="Path_3109" data-name="Path 3109" d="M365.252,186.137l-7.146-7.146a3.5,3.5,0,0,1,4.947-4.947l7.146,7.146a1.166,1.166,0,0,1,0,1.649l-3.3,3.3a1.168,1.168,0,0,1-1.649,0Z" transform="translate(-278.436 -147.929)" fill="#2f2e41"/>
      <g id="Group_8251" data-name="Group 8251" transform="translate(96 75)">
        <path id="Path_3077-2" data-name="Path 3077" d="M894.8,450.724H839.626a2.508,2.508,0,0,1,0-5.016H894.8a2.508,2.508,0,0,1,0,5.016Z" transform="translate(-705.988 -418.135)" fill="#ccc"/>
        <path id="Path_3078-2" data-name="Path 3078" d="M858.749,416.724H839.626a2.508,2.508,0,0,1,0-5.016h19.123a2.508,2.508,0,0,1,0,5.016Z" transform="translate(-705.988 -394.793)" fill="#ccc"/>
        <path id="Path_3110-2" data-name="Path 3110" d="M809.464,385.456H710.089a5.337,5.337,0,0,0-5.329,5.329v21.944a5.337,5.337,0,0,0,5.329,5.329h99.375a5.337,5.337,0,0,0,5.329-5.329V390.785A5.337,5.337,0,0,0,809.464,385.456Zm4.7,27.273a4.708,4.708,0,0,1-4.7,4.7H710.089a4.708,4.708,0,0,1-4.7-4.7V390.785a4.708,4.708,0,0,1,4.7-4.7h99.375a4.708,4.708,0,0,1,4.7,4.7Z" transform="translate(-609.123 -376.771)" fill="#3f3d56"/>
        <g id="Group_8262" data-name="Group 8262">
          <circle id="Ellipse_719-2" data-name="Ellipse 719" cx="9.252" cy="9.252" r="9.252" transform="translate(101.763 15.822)" fill="#3dc9b9"/>
          <path id="Path_3106-2" data-name="Path 3106" d="M459.17,165.638a.4.4,0,0,1-.118-.284V155.114a.4.4,0,0,1,.8,0v10.239a.4.4,0,0,1-.687.284Z" transform="translate(-348.44 -135.361)" fill="#fff"/>
          <path id="Path_3107-2" data-name="Path 3107" d="M442.838,171.73a.4.4,0,0,1,.284-.687h10.239a.4.4,0,0,1,0,.8H443.123a.4.4,0,0,1-.284-.118Z" transform="translate(-337.228 -146.574)" fill="#fff"/>
        </g>
      </g>
    </g>
  </g>
</svg>
