<svg xmlns="http://www.w3.org/2000/svg" width="286.473" height="275.303" viewBox="0 0 286.473 275.303">
  <g id="helper3" transform="translate(-45 -116.662)">
    <g id="undraw_next_option_2ajo" transform="translate(35 142.619)">
      <ellipse id="Ellipse_685" data-name="Ellipse 685" cx="83.748" cy="14.006" rx="83.748" ry="14.006" transform="translate(57.021 209.369)" fill="#cfd1d5"/>
      <path id="Path_3023" data-name="Path 3023" d="M456.979,287l-.631-.193L220.917,214.992l.648-.323,161.618-80.707.127.264ZM222.47,214.862l233.415,71.2L382.917,134.74Z" transform="translate(-178.441 -106.483)" fill="#3f3d56" opacity="0.256"/>
      <g id="Group_8234" data-name="Group 8234" transform="translate(-3.515 -12.053)">
        <path id="Path_3024" data-name="Path 3024" d="M500.482,287.309h-1.944l-8.262,29.969s-.162,19.925,1.782,29.645c0,0,3.24-4.212,5.508-4.212s4.374-21.221,4.374-21.221S510.85,291.2,500.482,287.309Z" transform="translate(-369.94 -211.616)" fill="#3f3d56"/>
        <path id="Path_3025" data-name="Path 3025" d="M648.77,464.309s-5.184,14.579-.324,15.551S655.9,468.521,654.6,466.9,648.77,464.309,648.77,464.309Z" transform="translate(-475.461 -331.272)" fill="#feb8b8"/>
        <path id="Path_3026" data-name="Path 3026" d="M494.157,453.979s1.457,15.4,6.273,14.234,1.967-13.426.108-14.347S494.157,453.979,494.157,453.979Z" transform="translate(-372.565 -323.954)" fill="#feb8b8"/>
        <path id="Path_3027" data-name="Path 3027" d="M526.386,727.225s2.268,11.015-1.62,13.931,1.3,9.072,1.3,9.072l12.312-12.959s-5.184-8.1-4.86-12.959Z" transform="translate(-392.28 -507.036)" fill="#feb8b8"/>
        <path id="Path_3028" data-name="Path 3028" d="M515.569,725.5l-1.3,8.748-.324,6.156,7.128-.648.972-12.635Z" transform="translate(-362.023 -495.267)" fill="#feb8b8"/>
        <path id="Path_3029" data-name="Path 3029" d="M500.416,459.778s-4,1.468-3.672,5.68,1.3,17.5,1.3,17.5-2.916,28.511,0,38.23,8.424,29.159,8.424,29.159,8.424,1.62,10.368-4.536c0,0-.324-21.059-3.888-25.595s-.972-5.832-.648-6.48,1.3-1.62,1.3-2.592.324-4.536.324-5.832a4.959,4.959,0,0,1,.324-2.916c.648-1.944,1.3-2.592,1.3-2.916s5.508-17.5,5.508-17.5l7.128,39.85s-1.62,39.2-.972,39.2,7.776,2.592,10.368,0c0,0,6.48-33.695,5.184-35.638s-1.62-2.268-1.3-4.212.972-2.916.324-3.888-1.62-4.212-.648-5.184,1.3-5.508,1.3-5.508,5.508-31.751,1.944-36.286S500.416,459.778,500.416,459.778Z" transform="translate(-374.302 -328.209)" fill="#2f2e41"/>
        <path id="Path_3030" data-name="Path 3030" d="M505.575,762.577s-3.888-4.86-5.184-2.592-3.24,5.832-3.24,5.832-14.579,12.635-6.48,12.959a18.129,18.129,0,0,0,13.283-5.508s1.3-6.48,5.184-6.48l.648,1.62,7.128-4.536s-1-8.6-3.9-8.351Z" transform="translate(-368.553 -528.133)" fill="#2f2e41"/>
        <path id="Path_3031" data-name="Path 3031" d="M582.882,804.3s8.424-3.24,9.4,0a19.181,19.181,0,0,1,.972,4.86s7.128,11.664,0,12.311-10.367-3.888-10.367-3.888.972-5.508,0-6.156S582.882,804.3,582.882,804.3Z" transform="translate(-432.252 -560.14)" fill="#2f2e41"/>
        <circle id="Ellipse_686" data-name="Ellipse 686" cx="11.339" cy="11.339" r="11.339" transform="translate(145.122 42.645)" fill="#feb8b8"/>
        <path id="Path_3032" data-name="Path 3032" d="M571.052,228.309l-2.268,12.635,15.875,3.888s-3.726-9.234.324-13.283C586.007,230.524,571.052,228.309,571.052,228.309Z" transform="translate(-423.014 -171.732)" fill="#feb8b8"/>
        <path id="Path_3033" data-name="Path 3033" d="M526.245,250.694a2.068,2.068,0,0,0-1.614,1.5,8.629,8.629,0,0,1-1.3,2.592s-15.227,7.128-15.227,8.1,6.156,21.707,6.156,21.707.324,12.959-2.268,15.875-5.184,13.607-4.536,14.579-4.536,3.24-2.592,4.86,29.159,17.171,45.358,10.044a22.186,22.186,0,0,0,0-4.86c-.324-1.944,1.944-8.424,1.3-10.692s0-25.595,0-25.595l3.339-27.622a2.248,2.248,0,0,0-1.577-2.422c-3.734-1.135-12.394-5.781-13.587-4.785C538.151,255.262,528.507,254.383,526.245,250.694Z" transform="translate(-379.509 -186.866)" fill="#3f3d56"/>
        <path id="Path_3034" data-name="Path 3034" d="M642.671,274.954l.021-.008a2.247,2.247,0,0,1,2.65.759c2.008,2.747,6.233,8.922,6.725,12.857.648,5.184,2.592,19.115,2.268,21.059s-.648,2.268,0,3.24.324.648,0,1.62-4.212,27.863-4.212,27.863-2.592-5.832-7.452-3.888c0,0,.648-5.184,0-6.8s-1.3-2.592-.648-3.888,0-13.931-.324-15.227,0-8.1,0-8.1l-2.916-13.283Z" transform="translate(-470.334 -203.151)" fill="#3f3d56"/>
        <path id="Path_3035" data-name="Path 3035" d="M572.36,192.084l.383-2.67c.089-.622.454-1.441,1.059-1.271.515.144,1.637.585,1.825.452.7-.5,1.768.373,2.508-.07.31-.185.512-.583.872-.609a.994.994,0,0,1,.64.29,4.358,4.358,0,0,0,1.658.9,1.783,1.783,0,0,0,1.745-.476.927.927,0,0,1,.309-.3.693.693,0,0,1,.444.02l1.89.515a7.263,7.263,0,0,0-.972-5.98,12.024,12.024,0,0,0-2.753-2.7q-1.756-1.336-3.624-2.513a11.771,11.771,0,0,0-4.4-1.915,4.7,4.7,0,0,0-4.381,1.454,2.821,2.821,0,0,1-1.015-1.371,1.038,1.038,0,0,0,.067,1.592l-1.6-1.021c-.449.472.429,1.327.046,1.855a.977.977,0,0,1-.43.281,7.329,7.329,0,0,0-2.344,1.475,8.748,8.748,0,0,0-1.846,3.4c-.953,2.733-1.645,5.867-.291,8.425.153.29,2.179,5.077,2.449,5.263.912.631.318-.9.972,0,.513.7.417-1.987,1.178-1.4a1.9,1.9,0,0,0,2.067.093c.316-.219.214-1.435.044-2.552a1.316,1.316,0,0,1,1.6-1.48A5.71,5.71,0,0,0,572.36,192.084Z" transform="translate(-418.016 -136.17)" fill="#2f2e41"/>
        <path id="Path_3036" data-name="Path 3036" d="M641.5,305.921l2.866,32.362S638.31,311.14,641.5,305.921Z" transform="translate(-471.543 -224.199)" opacity="0.1"/>
      </g>
      <path id="Path_3037" data-name="Path 3037" d="M716.165,74.307l15.017,8.2L716.165,90.35Z" transform="translate(-509.347 -53.848)" fill="#fff"/>
      <path id="Path_3038" data-name="Path 3038" d="M202.823,381.8H158.35V337.328h44.473Zm-43.855-.618h43.237V337.945H158.968Z" transform="translate(-133.943 -251.12)" fill="#fff"/>
      <rect id="Rectangle_3632" data-name="Rectangle 3632" width="27.178" height="2.479" transform="translate(33.055 100.274)" fill="#fff"/>
      <rect id="Rectangle_3633" data-name="Rectangle 3633" width="27.178" height="2.479" transform="translate(33.055 107.204)" fill="#fff"/>
      <rect id="Rectangle_3634" data-name="Rectangle 3634" width="27.178" height="2.479" transform="translate(33.055 114.135)" fill="#fff"/>
      <path id="Path_3039" data-name="Path 3039" d="M993.774,635.847H950.457V614.766h43.318Zm-42.74-.578H993.2V615.343H951.034Z" transform="translate(-697.301 -448.438)" fill="#fff"/>
      <circle id="Ellipse_687" data-name="Ellipse 687" cx="3.177" cy="3.177" r="3.177" transform="translate(261.819 173.691)" fill="#fff"/>
      <circle id="Ellipse_688" data-name="Ellipse 688" cx="3.177" cy="3.177" r="3.177" transform="translate(271.638 173.691)" fill="#fff"/>
      <circle id="Ellipse_689" data-name="Ellipse 689" cx="3.177" cy="3.177" r="3.177" transform="translate(281.456 173.691)" fill="#fff"/>
      <path id="Path_3040" data-name="Path 3040" d="M734.361,99.887Z" transform="translate(-543.2 -81.838)" fill="#fff"/>
    </g>
    <g id="Ellipse_725" data-name="Ellipse 725" transform="translate(227 151)" fill="none" stroke="#fff" stroke-width="1">
      <circle cx="20" cy="20" r="20" stroke="none"/>
      <circle cx="20" cy="20" r="19.5" fill="none"/>
    </g>
    <g id="Group_8256" data-name="Group 8256" transform="translate(45 207.311)">
      <path id="Path_3041" data-name="Path 3041" d="M35.013,0A35.013,35.013,0,1,1,0,35.013,35.013,35.013,0,0,1,35.013,0Z" transform="translate(0 0)" fill="#3bc3ba"/>
      <path id="Path_2899" data-name="Path 2899" d="M808.942,373.611a19.5,19.5,0,0,0-4.118-2.752c-1.233-.592-1.686-.582-2.559.049-.726.515-1.2,1.012-2.031.829s-2.486-1.429-4.085-3.022-2.839-3.235-3.017-4.082.311-1.308.831-2.033c.628-.873.646-1.326.049-2.559a19.737,19.737,0,0,0-2.754-4.118c-.9-.9-1.1-.7-1.593-.515a9.208,9.208,0,0,0-1.459.772,4.4,4.4,0,0,0-1.75,1.851c-.353.752-.752,2.147,1.3,5.8a32.352,32.352,0,0,0,5.688,7.585h0a32.4,32.4,0,0,0,7.611,5.7c3.65,2.059,5.047,1.65,5.8,1.3a4.321,4.321,0,0,0,1.848-1.75,9.089,9.089,0,0,0,.772-1.459C809.644,374.71,809.845,374.51,808.942,373.611Z" transform="translate(-762.884 -331.963)" fill="#fff"/>
      <g id="Ellipse_693" data-name="Ellipse 693" transform="translate(9 9.688)" fill="none" stroke="#fff" stroke-width="1">
        <ellipse cx="26" cy="25.5" rx="26" ry="25.5" stroke="none"/>
        <ellipse cx="26" cy="25.5" rx="25.5" ry="25" fill="none"/>
      </g>
    </g>
    <g id="Group_8257" data-name="Group 8257" transform="translate(211.784 116.662)">
      <circle id="Ellipse_690" data-name="Ellipse 690" cx="34.812" cy="34.812" r="34.812" transform="translate(0 0)" fill="#3bc3ba"/>
      <path id="Path_3037-2" data-name="Path 3037" d="M716.165,74.307l19.608,10.706L716.165,95.254Z" transform="translate(-689.694 -50.148)" fill="#fff"/>
      <g id="Ellipse_694" data-name="Ellipse 694" transform="translate(9.216 9.338)" fill="none" stroke="#fff" stroke-width="1">
        <ellipse cx="25.5" cy="25" rx="25.5" ry="25" stroke="none"/>
        <ellipse cx="25.5" cy="25" rx="25" ry="24.5" fill="none"/>
      </g>
    </g>
    <g id="Group_8258" data-name="Group 8258" transform="translate(250.827 270.75)">
      <circle id="Ellipse_691" data-name="Ellipse 691" cx="34.913" cy="34.913" r="34.913" transform="translate(0 0)" fill="#3bc3ba"/>
      <g id="Ellipse_695" data-name="Ellipse 695" transform="translate(9.173 10.248)" fill="none" stroke="#fff" stroke-width="1">
        <ellipse cx="25.5" cy="25" rx="25.5" ry="25" stroke="none"/>
        <ellipse cx="25.5" cy="25" rx="25" ry="24.5" fill="none"/>
      </g>
      <g id="Group_8013" data-name="Group 8013" transform="translate(22.111 24.862)">
        <g id="multiple-users-silhouette" transform="translate(0)">
          <path id="Path_2793" data-name="Path 2793" d="M15.533,10.066a4.677,4.677,0,0,1,2.177,3.475,3.774,3.774,0,1,0-2.177-3.475ZM13.06,17.8a3.775,3.775,0,1,0-3.776-3.775A3.775,3.775,0,0,0,13.06,17.8Zm1.6.257h-3.2a4.839,4.839,0,0,0-4.834,4.834V26.8l.01.061.27.084a22,22,0,0,0,6.572,1.06,13.492,13.492,0,0,0,5.738-1.077l.252-.128h.027V22.887A4.838,4.838,0,0,0,14.661,18.053Zm6.246-3.9H17.728A4.652,4.652,0,0,1,16.292,17.4a5.743,5.743,0,0,1,4.1,5.5V24.1a13.007,13.007,0,0,0,5.066-1.064l.252-.128h.027V18.989A4.839,4.839,0,0,0,20.907,14.156ZM6.436,13.9a3.75,3.75,0,0,0,2.008-.583,4.672,4.672,0,0,1,1.756-2.98c0-.071.011-.141.011-.212A3.775,3.775,0,1,0,6.436,13.9Zm3.39,3.5a4.655,4.655,0,0,1-1.435-3.223c-.118-.009-.234-.018-.355-.018h-3.2A4.839,4.839,0,0,0,0,18.989v3.918l.01.06.27.085a22.663,22.663,0,0,0,5.443,1.023V22.892A5.745,5.745,0,0,1,9.826,17.4Z" transform="translate(0 -6.348)" fill="#fff"/>
        </g>
      </g>
    </g>
  </g>
</svg>
