<svg xmlns="http://www.w3.org/2000/svg" xmlns:xlink="http://www.w3.org/1999/xlink" width="261" height="277.938" viewBox="0 0 261 277.938">
  <defs>
    <linearGradient id="linear-gradient" x1="0.5" y1="1" x2="0.5" gradientUnits="objectBoundingBox">
      <stop offset="0" stop-color="gray" stop-opacity="0.251"/>
      <stop offset="0.54" stop-color="gray" stop-opacity="0.122"/>
      <stop offset="1" stop-color="gray" stop-opacity="0.102"/>
    </linearGradient>
    <linearGradient id="linear-gradient-4" xlink:href="#linear-gradient"/>
  </defs>
  <g id="helper2" transform="translate(-31 -114.33)">
    <g id="Group_8259" data-name="Group 8259">
      <g id="Group_8248" data-name="Group 8248" transform="translate(199 44.33)">
        <g id="Group_8242" data-name="Group 8242" transform="translate(-168 70)" opacity="0.5">
          <rect id="Rectangle_3635" data-name="Rectangle 3635" width="153.739" height="106.467" fill="url(#linear-gradient)"/>
        </g>
        <rect id="Rectangle_3636" data-name="Rectangle 3636" width="150.957" height="103.685" transform="translate(-166.411 71.589)" fill="#f7f7f7"/>
        <g id="Group_8243" data-name="Group 8243" transform="translate(-144.662 103.965)" opacity="0.108">
          <circle id="Ellipse_696" data-name="Ellipse 696" cx="2.782" cy="2.782" r="2.782" transform="translate(0)" fill="#3dc9b9"/>
          <circle id="Ellipse_697" data-name="Ellipse 697" cx="2.782" cy="2.782" r="2.782" transform="translate(0 16.686)" fill="#3dc9b9"/>
          <circle id="Ellipse_698" data-name="Ellipse 698" cx="2.782" cy="2.782" r="2.782" transform="translate(0 33.368)" fill="#3dc9b9"/>
        </g>
        <rect id="Rectangle_3637" data-name="Rectangle 3637" width="84.22" height="3.178" transform="translate(-121.42 105.158)" fill="#e0e0e0"/>
        <rect id="Rectangle_3638" data-name="Rectangle 3638" width="84.22" height="3.178" transform="translate(-121.42 121.84)" fill="#e0e0e0"/>
        <rect id="Rectangle_3639" data-name="Rectangle 3639" width="84.22" height="3.178" transform="translate(-121.42 138.526)" fill="#e0e0e0"/>
        <g id="Group_8244" data-name="Group 8244" transform="translate(-114.369 113.3)" opacity="0.5">
          <rect id="Rectangle_3640" data-name="Rectangle 3640" width="153.739" height="106.467" fill="url(#linear-gradient)"/>
        </g>
        <rect id="Rectangle_3641" data-name="Rectangle 3641" width="150.957" height="103.685" transform="translate(-112.781 114.889)" fill="#f7f7f7"/>
        <g id="Group_8245" data-name="Group 8245" transform="translate(-91.032 147.265)" opacity="0.108">
          <circle id="Ellipse_699" data-name="Ellipse 699" cx="2.782" cy="2.782" r="2.782" fill="#3dc9b9"/>
          <circle id="Ellipse_700" data-name="Ellipse 700" cx="2.782" cy="2.782" r="2.782" transform="translate(0 16.686)" fill="#3dc9b9"/>
          <circle id="Ellipse_701" data-name="Ellipse 701" cx="2.782" cy="2.782" r="2.782" transform="translate(0 33.372)" fill="#3dc9b9"/>
        </g>
        <rect id="Rectangle_3642" data-name="Rectangle 3642" width="84.22" height="3.178" transform="translate(-67.793 148.458)" fill="#e0e0e0"/>
        <rect id="Rectangle_3643" data-name="Rectangle 3643" width="84.22" height="3.178" transform="translate(-67.793 165.144)" fill="#e0e0e0"/>
        <rect id="Rectangle_3644" data-name="Rectangle 3644" width="84.22" height="3.178" transform="translate(-67.793 181.827)" fill="#e0e0e0"/>
        <g id="Group_8246" data-name="Group 8246" transform="translate(-60.739 156.603)" opacity="0.5">
          <rect id="Rectangle_3645" data-name="Rectangle 3645" width="153.739" height="106.467" fill="url(#linear-gradient)"/>
        </g>
        <rect id="Rectangle_3646" data-name="Rectangle 3646" width="150.957" height="103.685" transform="translate(-59.15 158.192)" fill="#eee"/>
        <circle id="Ellipse_702" data-name="Ellipse 702" cx="2.782" cy="2.782" r="2.782" transform="translate(-37.401 190.565)" fill="#3dc9b9"/>
        <circle id="Ellipse_703" data-name="Ellipse 703" cx="2.782" cy="2.782" r="2.782" transform="translate(-37.401 207.25)" fill="#3dc9b9"/>
        <circle id="Ellipse_704" data-name="Ellipse 704" cx="2.782" cy="2.782" r="2.782" transform="translate(-37.401 223.936)" fill="#3dc9b9"/>
        <rect id="Rectangle_3647" data-name="Rectangle 3647" width="84.22" height="3.178" transform="translate(-14.162 191.758)" fill="#dfdfdf"/>
        <rect id="Rectangle_3648" data-name="Rectangle 3648" width="84.22" height="3.178" transform="translate(-14.162 208.444)" fill="#dfdfdf"/>
        <rect id="Rectangle_3649" data-name="Rectangle 3649" width="84.22" height="3.178" transform="translate(-14.162 225.13)" fill="#dfdfdf"/>
      </g>
    </g>
    <g id="Group_8260" data-name="Group 8260" transform="translate(161.136 167.5)">
      <path id="Path_2906" data-name="Path 2906" d="M798.5,617.175q1.777-4.336,3.644-8.647a25.665,25.665,0,0,1,4.454-7.693,8.149,8.149,0,0,1,2.612-1.959,11.136,11.136,0,0,1,3.409-.679,27.2,27.2,0,0,1,5.355-.143c.692-.209,1.476-.483,2.247-.8a18.652,18.652,0,0,1-13.9-17.307c0-.261,0-.536,0-.8a18.613,18.613,0,0,1,18.535-18.692,18.287,18.287,0,0,1,9.731,2.782,17.464,17.464,0,0,1,19.593,9.444,21.591,21.591,0,0,1,6.662,16.066v.823c-.34,10.149-6.9,18.287-15.178,19.11a8.7,8.7,0,0,1,2.4,1.606c2.534,2.443,2.952,6.322,3.226,9.849l.2,2.612,4.389,1.568a.81.81,0,0,1,.2,1.424l-4.193,2.991v.745a3.265,3.265,0,0,1-.078.849,5.994,5.994,0,0,1,1.62,2.312,10.685,10.685,0,0,1,.379,4.232l-.157,3.644a28.625,28.625,0,0,1-1.11,8.112c-.549,1.62-2.926,5.525-4.637,5.551,1.581,7.184,2,22.336,2,22.336.2.2-.353.379-1.306.536-.94,7.21-4.01,27.43-9.457,36.325a76.618,76.618,0,0,0-2.051,8.83s-1.555,19.214-3.605,24.922c-1.75,4.859-3.135,16.85-3.514,20.324a2,2,0,0,1,1.45,1.489c1.032,3.109,7.72,7.837,7.72,7.837a32.336,32.336,0,0,1,5.774,3.7c2.1,1.894,2.025,3.605-7.315,2.534-18.026-2.077-21.108-7.837-21.108-7.837s.287-.967.718-2.221a24.109,24.109,0,0,1,2.364-5.578c.261-.248.522.17.836.823a111.843,111.843,0,0,0,1.228-25.223s-.51-8.83,2.064-15.06a28.515,28.515,0,0,0,0-9.862c-1.032-4.154,4.115-24.413,4.115-24.413l2.952-14.917a4.283,4.283,0,0,0-.823,1.737l-.078.3-.078.431a.81.81,0,0,1-.209.405c-2.012,8.36-7.524,31.518-7.524,34.914,0,4.154-5.147,14.538-5.147,14.538s-2.051,17.137-5.656,23.877c-2.743,5.133-2.808,12.657-2.678,15.975h0s.614,4.271,1.646,5.3a12.617,12.617,0,0,1,1.946,3.383l.118.248s1.541,3.122.509,3.644a25.3,25.3,0,0,1-12.357,1.554s-2.064-2.612-2.064-3.631a16.381,16.381,0,0,1,.235-1.855c.379-2.456,1.084-6.322,1.1-6.361-.431-1.672,1.306-6.322,1.306-6.322l.522-14.538a67.11,67.11,0,0,1,3.605-29.089s2.613-9.339,2.051-11.939,1.032-30.121,1.032-30.121l.157-.392a29.766,29.766,0,0,0-.157-5.839c-.51-6.231,1.541-19.214,2.064-19.724a17.116,17.116,0,0,0,.731-4.3c-.118-1.084-.47-4.258-.953-8.2a147.452,147.452,0,0,1-15.178-1.306,1.894,1.894,0,0,1-1.306-.522,1.829,1.829,0,0,1-.3-1.058C792.676,632.013,795.537,624.411,798.5,617.175Zm10.358,16.471c-.535-3.723-1.11-7.328-1.685-10.005l-.078.235a72.674,72.674,0,0,0-2.482,8.229A27.986,27.986,0,0,0,808.86,633.646Z" transform="translate(-793.196 -560.46)" fill="url(#linear-gradient-4)"/>
      <path id="Path_2907" data-name="Path 2907" d="M831.12,648.919s-3.083,27.731-9.757,38.507a74.744,74.744,0,0,0-2.051,8.726s-1.541,18.992-3.592,24.635-3.592,21.056-3.592,21.056-7.184,8.2-9.757,1.541a108.177,108.177,0,0,0,1.541-26.7s-.51-8.726,2.051-14.891a27.842,27.842,0,0,0,0-9.744c-1.019-4.115,4.115-24.126,4.115-24.126l4.1-20.024Z" transform="translate(-775.447 -533.686)" fill="#be6f72"/>
      <path id="Path_2908" data-name="Path 2908" d="M804.582,726.755s3.083,5.643,21.043,7.693c9.326,1.058,9.392-.627,7.289-2.508a32.5,32.5,0,0,0-5.747-3.657s-6.675-4.611-7.693-7.693-4.624-.51-4.624-.51c-5.133,7.694-6.165-2.064-7.184-1.032a23.166,23.166,0,0,0-2.364,5.5C804.87,725.788,804.582,726.755,804.582,726.755Z" transform="translate(-781.251 -511.925)" fill="#3dc9b9"/>
      <path id="Path_2909" data-name="Path 2909" d="M804.582,725.447s3.083,5.643,21.043,7.694c9.326,1.058,9.392-.627,7.289-2.508-1.463.927-4.415,1.306-10.358-1.084-8.556-3.5-14.76-5.525-17.255-6.309C804.87,724.481,804.582,725.447,804.582,725.447Z" transform="translate(-781.251 -510.618)" opacity="0.1"/>
      <path id="Path_2910" data-name="Path 2910" d="M814.161,716.684s-.509-8.725,2.051-14.891a27.839,27.839,0,0,0,0-9.744c-1.019-4.115,4.115-24.125,4.115-24.125l4.1-20.024,3.553.209-4.062,19.815s-5.133,20.011-4.115,24.125a27.844,27.844,0,0,1,0,9.744c-2.612,6.165-2.051,14.891-2.051,14.891a108.169,108.169,0,0,1-1.541,26.7A4.5,4.5,0,0,0,817.7,745.5c-1.907.862-3.919.823-5.081-2.116A108.175,108.175,0,0,0,814.161,716.684Z" transform="translate(-785.697 -533.686)" opacity="0.1"/>
      <path id="Path_2911" data-name="Path 2911" d="M811.6,562.42a18.288,18.288,0,0,1,9.692,2.756,17.438,17.438,0,0,1,19.593,9.339A21.264,21.264,0,0,1,847.53,590.4c0,10.92-7.354,19.763-16.419,19.763-6.531,0-12.252-4.65-14.878-11.377a18.031,18.031,0,0,1-4.624.6,18.483,18.483,0,1,1,0-36.965Z" transform="translate(-779.788 -559.859)" fill="#3f3d56"/>
      <path id="Path_2912" data-name="Path 2912" d="M826.5,650.65l-1.541,4.1s-1.542,27.208-1.019,29.781-2.064,11.756-2.064,11.756a65.714,65.714,0,0,0-3.592,28.736l-.509,14.368s-2.051,5.643-1.032,6.675,8.765-.914,8.765-.914-1.032-10.776,2.612-17.451,5.643-23.616,5.643-23.616,5.134-10.267,5.134-14.368,8.216-37.475,8.216-37.475Z" transform="translate(-809.845 -532.844)" fill="#be6f72"/>
      <path id="Path_2913" data-name="Path 2913" d="M843.274,657.835s-.522-18.483-2.612-24.125a38.3,38.3,0,0,1-2.286-8.19s-31.075,5.617-33.648,3.566c0,0-.509,7.184-1.032,7.693s-2.612,13.349-2.051,19.515,0,6.152,0,6.152,21.056,3.083,21.566,0,2.051-3.07,2.051-3.07S844.293,658.8,843.274,657.835Z" transform="translate(-786.569 -540.539)" fill="#3f3d56"/>
      <g id="Group_8232" data-name="Group 8232" transform="translate(15.031 88.545)" opacity="0.1">
        <path id="Path_2914" data-name="Path 2914" d="M803.356,650.508s12.984-.353,16.9-1.058v1.058c1.019,1.019-17.974,1.541-17.974,1.541a1.305,1.305,0,0,0-.705.287C802.272,650.508,803.356,650.508,803.356,650.508Z" transform="translate(-778.624 -621.759)"/>
        <path id="Path_2915" data-name="Path 2915" d="M818.925,635.943c.522-.509,1.032-7.693,1.032-7.693a2.208,2.208,0,0,0,.875.313c-.183,2.168-.536,5.5-.875,5.839s-2.612,13.349-2.051,19.515,0,6.152,0,6.152,16.654,2.443,20.69.81a6.189,6.189,0,0,1-.157.732c-.509,3.083-21.566,0-21.566,0s.523,0,0-6.152S818.415,636.466,818.925,635.943Z" transform="translate(-816.79 -628.25)"/>
        <path id="Path_2916" data-name="Path 2916" d="M803.356,650.508s12.984-.353,16.9-1.058v1.058c1.019,1.019-17.974,1.541-17.974,1.541a1.305,1.305,0,0,0-.705.287C802.272,650.508,803.356,650.508,803.356,650.508Z" transform="translate(-778.624 -621.759)"/>
        <path id="Path_2917" data-name="Path 2917" d="M818.925,635.943c.522-.509,1.032-7.693,1.032-7.693a2.208,2.208,0,0,0,.875.313c-.183,2.168-.536,5.5-.875,5.839s-2.612,13.349-2.051,19.515,0,6.152,0,6.152,16.654,2.443,20.69.81a6.189,6.189,0,0,1-.157.732c-.509,3.083-21.566,0-21.566,0s.523,0,0-6.152S818.415,636.466,818.925,635.943Z" transform="translate(-816.79 -628.25)"/>
      </g>
      <path id="Path_2918" data-name="Path 2918" d="M814.241,588.417a6.8,6.8,0,0,1-1.959,2.534,4.391,4.391,0,0,1-1.842.8c1.149.666,2.4,1.162,3.553,1.829a63.129,63.129,0,0,1,5.225,3.919,10.631,10.631,0,0,0,6,2.325,7.341,7.341,0,0,1-.836-7.3,6.819,6.819,0,0,0,.914-2.534c0-1.476-1.306-2.613-2.521-3.4-.98-.666-1.985-1.306-3-1.946-.8-.5-2-1.541-3-1.5s-1.123.927-1.306,1.842A14.479,14.479,0,0,1,814.241,588.417Z" transform="translate(-780.16 -553.515)" fill="#be6f72"/>
      <path id="Path_2919" data-name="Path 2919" d="M814.241,588.417a6.8,6.8,0,0,1-1.959,2.534,4.391,4.391,0,0,1-1.842.8c1.149.666,2.4,1.162,3.553,1.829a63.129,63.129,0,0,1,5.225,3.919,10.631,10.631,0,0,0,6,2.325,7.341,7.341,0,0,1-.836-7.3,6.819,6.819,0,0,0,.914-2.534c0-1.476-1.306-2.613-2.521-3.4-.98-.666-1.985-1.306-3-1.946-.8-.5-2-1.541-3-1.5s-1.123.927-1.306,1.842A14.479,14.479,0,0,1,814.241,588.417Z" transform="translate(-780.16 -553.515)" opacity="0.1"/>
      <ellipse id="Ellipse_678" data-name="Ellipse 678" cx="11.808" cy="11.808" rx="11.808" ry="11.808" transform="translate(10.242 41.575)" fill="#be6f72"/>
      <path id="Path_2920" data-name="Path 2920" d="M829.608,732.5c0,1.032,2.051,3.592,2.051,3.592a25.421,25.421,0,0,0,12.318-1.541c1.032-.509-.51-3.592-.51-3.592l-.118-.248a12.463,12.463,0,0,0-1.946-3.344c-1.019-1.019-1.633-5.225-1.633-5.225-3.187-5.225-8.843,2.26-8.843,2.26s-.718,3.919-1.1,6.3A17.9,17.9,0,0,0,829.608,732.5Z" transform="translate(-824.237 -511.52)" fill="#3dc9b9"/>
      <path id="Path_2921" data-name="Path 2921" d="M829.608,730.069c0,1.032,2.051,3.592,2.051,3.592a25.419,25.419,0,0,0,12.318-1.541c1.032-.509-.51-3.592-.51-3.592l-.118-.248a24.82,24.82,0,0,1-11.181,2.3l-2.338-2.338C829.7,729.115,829.608,729.807,829.608,730.069Z" transform="translate(-824.237 -509.087)" opacity="0.1"/>
      <ellipse id="Ellipse_679" data-name="Ellipse 679" cx="11.547" cy="11.547" rx="11.547" ry="11.547" transform="translate(34.121 17.189)" fill="#be6f72"/>
      <path id="Path_2922" data-name="Path 2922" d="M808.326,600.864c2.534,2.416,2.952,6.244,3.213,9.731l.392,5.107a25.778,25.778,0,0,1,.091,4.141c0,.849-.209,1.711-.287,2.612s-.1,2.038-.118,3.07v7.55a8.907,8.907,0,0,1-.836,4.532,3.083,3.083,0,0,1-3.919,1.411,4.467,4.467,0,0,1-1.62-2.508,38.992,38.992,0,0,1-2.612-9.561c-.1-1.136-.118-2.273-.222-3.409s-.3-2.325-.47-3.474c-.731-4.807-1.058-9.666-1.385-14.512-.091-1.437-1.385-7.093.5-7.72.914-.3,2.808.64,3.684.953a10.372,10.372,0,0,1,3.592,2.077Z" transform="translate(-753.346 -549.035)" fill="#be6f72"/>
      <path id="Path_2923" data-name="Path 2923" d="M808.326,600.864c2.534,2.416,2.952,6.244,3.213,9.731l.392,5.107a25.778,25.778,0,0,1,.091,4.141c0,.849-.209,1.711-.287,2.612s-.1,2.038-.118,3.07v7.55a8.907,8.907,0,0,1-.836,4.532,3.083,3.083,0,0,1-3.919,1.411,4.467,4.467,0,0,1-1.62-2.508,38.992,38.992,0,0,1-2.612-9.561c-.1-1.136-.118-2.273-.222-3.409s-.3-2.325-.47-3.474c-.731-4.807-1.058-9.666-1.385-14.512-.091-1.437-1.385-7.093.5-7.72.914-.3,2.808.64,3.684.953a10.372,10.372,0,0,1,3.592,2.077Z" transform="translate(-753.346 -549.035)" opacity="0.1"/>
      <path id="Path_2924" data-name="Path 2924" d="M822.457,588.16s8.726,6.675,13.859,8.216c0,0,3.043,3.475,3.566,4.31s1.568,10.058,2.612,12.122,3.592,6.675,0,11.286c0,0-1.019,4.624-.509,6.165s2.377,7.184.679,7.445-6.844,3.84-11.455,2.821-21.827,3.919-21.827,3.919-2.847-26.45-4.911-31.127l4.624-1.541s12.827-7.693,5.133-19.5C814.24,592.275,821.451,590.733,822.457,588.16Z" transform="translate(-791.419 -551.979)" fill="#3dc9b9"/>
      <path id="Path_2925" data-name="Path 2925" d="M811.278,612.61l-10.606,7.51a.784.784,0,0,1-.927,0l-2.874-2.155a.81.81,0,0,1,0-1.228l8.164-7.25a.784.784,0,0,1,.8-.157l5.238,1.881a.8.8,0,0,1,.209,1.4Z" transform="translate(-748.382 -545.51)" fill="#3f3d56"/>
      <path id="Path_2926" data-name="Path 2926" d="M809.768,633.888a28.42,28.42,0,0,0,1.11-8.007l.157-3.618a10.45,10.45,0,0,0-.379-4.18,6.831,6.831,0,0,0-4.4-3.853,15.2,15.2,0,0,0-6-.431,1.541,1.541,0,0,0-.771.209,1.436,1.436,0,0,0-.418.705,4.729,4.729,0,0,0-.235,3.775,3.917,3.917,0,0,0,1.2,1.241c1.424,1.019,3.083,1.7,4.428,2.808a1.607,1.607,0,0,1,.6.758,1.767,1.767,0,0,1,0,.823,13.145,13.145,0,0,1-.679,2.1,2.076,2.076,0,0,1-.588.888c-.248.209-.575.287-.836.483-.562.457-1.737,1.058-1.672,1.776.2,2.612,1.763,5.538,2.377,8.125C804.844,642.548,809.011,636.1,809.768,633.888Z" transform="translate(-750.438 -544.166)" fill="#be6f72"/>
      <g id="Group_8233" data-name="Group 8233" transform="translate(13.051 60.568)" opacity="0.1">
        <path id="Path_2927" data-name="Path 2927" d="M815.376,628.279h.287a8.793,8.793,0,0,1-3.357,0h-.327a11.759,11.759,0,0,1,3.4,0Z" transform="translate(-785.595 -600.3)"/>
        <path id="Path_2928" data-name="Path 2928" d="M831.8,606.83c1.842,4.141,4.559,26.568,5.042,31.022-1.8.47-2.991.81-2.991.81s-2.821-26.385-4.885-31.062Z" transform="translate(-828.97 -606.83)"/>
      </g>
      <path id="Path_2929" data-name="Path 2929" d="M833.456,604.911a3.919,3.919,0,0,1-1.685,2.547,22.617,22.617,0,0,0-2.991,3.03,21.458,21.458,0,0,0-2.965,5.943,72.823,72.823,0,0,0-2.469,8.125c6.531,3.03,13.95,2.887,20.9,4.885a16.68,16.68,0,0,1,7.837,4.637,10.8,10.8,0,0,1,2.887,8.5,1.111,1.111,0,0,1-.157.509,1.1,1.1,0,0,1-.914.366,7.837,7.837,0,0,1-4.794-1.646,22.815,22.815,0,0,1-3.67-3.605,5.9,5.9,0,0,0-2.612-1.933c-3.775-1.149-7.837-1.084-11.756-1.149a148.135,148.135,0,0,1-17.516-1.385,1.411,1.411,0,0,1-1.568-1.567c-.575-7.707,2.286-15.23,5.225-22.375q1.763-4.3,3.631-8.556a25.339,25.339,0,0,1,4.441-7.6,7.834,7.834,0,0,1,2.612-1.933,11.046,11.046,0,0,1,3.5-.653,24.826,24.826,0,0,1,5.734-.1,12.222,12.222,0,0,1,.549,2.965c-.1,3.527-1.646,6.831-3.161,10.019C834.318,604.414,833.756,604.441,833.456,604.911Z" transform="translate(-811.81 -551.16)" fill="#be6f72"/>
      <path id="Path_2930" data-name="Path 2930" d="M814.6,606.67a9.573,9.573,0,0,1,1.306,4.99,6.716,6.716,0,0,1-.327,2.038,6.609,6.609,0,0,1-4.167,3.919" transform="translate(-772.037 -546.31)" fill="none" stroke="#000" stroke-miterlimit="10" stroke-width="1" opacity="0.1"/>
      <path id="Path_2931" data-name="Path 2931" d="M805.527,574.785a5.992,5.992,0,0,1,1.894.3c1.711-2.612,5.734-4.415,10.45-4.415,6.244,0,11.3,3.226,11.3,7.2s-5.055,7.184-11.3,7.184a15.9,15.9,0,0,1-6.779-1.437,6.152,6.152,0,1,1-5.538-8.83Z" transform="translate(-769.617 -557.333)" fill="#3f3d56"/>
      <path id="Path_2932" data-name="Path 2932" d="M804.866,584.4a6.14,6.14,0,0,0,5.539-3.489,15.9,15.9,0,0,0,6.779,1.438c6.231,0,11.286-3.213,11.286-7.184a4.342,4.342,0,0,0,0-.718,4.869,4.869,0,0,1,.575,2.26c0,3.919-5.055,7.184-11.3,7.184a15.9,15.9,0,0,1-6.779-1.437,6.152,6.152,0,0,1-11.586-1.528,6.126,6.126,0,0,0,5.486,3.475Z" transform="translate(-769.466 -556.177)" opacity="0.1"/>
      <path id="Path_2933" data-name="Path 2933" d="M840.789,577.546a17.438,17.438,0,0,0-19.593-9.339,18.47,18.47,0,0,0-28.11,14.185V580.85a18.47,18.47,0,0,1,28.175-15.674,17.438,17.438,0,0,1,19.593,9.339A21.264,21.264,0,0,1,847.5,590.4v1.541A20.9,20.9,0,0,0,840.789,577.546Z" transform="translate(-779.708 -559.859)" opacity="0.1"/>
    </g>
  </g>
</svg>
