<svg xmlns="http://www.w3.org/2000/svg" width="225.592" height="72.008" viewBox="0 0 225.592 72.008">
  <g id="Logo" transform="translate(-645.011 -681.637)">
    <path id="Rectangle_3602" data-name="Rectangle 3602" d="M8.78,0h0a8.392,8.392,0,0,1,8.392,8.392v0a8.78,8.78,0,0,1-8.78,8.78H0a0,0,0,0,1,0,0V8.78A8.78,8.78,0,0,1,8.78,0Z" transform="translate(745.41 694.819)" fill="#3dc9b9"/>
    <path id="Path_2817" data-name="Path 2817" d="M830.267,736.923s2.506,16.827.912,22.853c-2.135,8.068,20.961.143,22.009-19.5S834.463,724.375,830.267,736.923Z" transform="translate(-70.685 -16.96)" fill="#3dc9b9"/>
    <path id="Path_2818" data-name="Path 2818" d="M827.217,733.558s-3.834-6.031,9.112-12.874,34.216-11.837,43.094-4.624-12.947,20.9-16.831,20.9c0,0,11.837.185,9.618,7.583s-13.5,14.242-36.25,12.762c0,0-7.953,7.213-17.385,7.953,0,0,8.484-6.3,8.3-12.587l17.418-5.692-3.339,4.778s11.2.5,16.83-2.589c4.88-2.682,2.907-5.518.555-6.658s-15.625-5.135-30.791,3.928l-.37-6.473s10.456-9.077,21.923-9.262l-.379,4.224s19.974-2.775,19.974-10.912S842.753,720.611,827.217,733.558Z" transform="translate(-66.217 -11.613)"/>
    <g id="Group_8097" data-name="Group 8097" transform="translate(741.402 688.757)">
      <path id="Path_2819" data-name="Path 2819" d="M803.278,705.8h0l-2.432,15.086,15.274-.433a11.249,11.249,0,0,0,6.269-18.448h0A11.249,11.249,0,0,0,803.278,705.8Zm14.464.278h0a5.163,5.163,0,0,1-2.877,8.467h0l-7.01.2,1.116-6.924h0A5.163,5.163,0,0,1,817.742,706.079Z" transform="translate(-800.846 -694.883)"/>
      <path id="Path_2820" data-name="Path 2820" d="M802.526,692.853s4.772,3.489,4.525,8.421,5.956-3,5.956-3A12.408,12.408,0,0,0,802.526,692.853Z" transform="translate(-801.488 -692.853)"/>
    </g>
    <text id="Mem" transform="translate(645.011 713.636)" font-size="42" font-family="MyriadPro-Bold, Myriad Pro" font-weight="700"><tspan x="0" y="0">Mem</tspan></text>
    <text id="eez" transform="translate(807.603 743.268)" font-size="41" font-family="MyriadPro-Bold, Myriad Pro" font-weight="700"><tspan x="0" y="0">eez</tspan></text>
  </g>
</svg>
