<svg xmlns="http://www.w3.org/2000/svg" width="273.844" height="183.734" viewBox="0 0 273.844 183.734">
  <g id="main" transform="translate(-30.4 -296.725)">
    <g id="undraw_chore_list_iof3" transform="translate(6 296.725)">
      <rect id="Rectangle_3679" data-name="Rectangle 3679" width="273.845" height="0.637" transform="translate(24.4 182)" fill="#2f2e41"/>
      <path id="Path_3130" data-name="Path 3130" d="M865.181,295.175l-5.684-5.969s-6.253-9.379-10.8-6.821,6.537,8.526,6.537,8.526l5.684,9.379Z" transform="translate(-619.374 -237.841)" fill="#feb8b8"/>
      <path id="Path_3131" data-name="Path 3131" d="M924.346,735.5s4.263,8.242,1.137,8.811-18.474,1.421-18.758.568-2.558-3.695-.853-4.832,8.526-1.989,8.526-1.989l2.274-2.274Z" transform="translate(-660.633 -562.489)" fill="#2f2e41"/>
      <path id="Path_3132" data-name="Path 3132" d="M918.182,451.291s9.095,11.369,1.705,23.021l-1.705,19.611s3.126,27-.853,36.1l-.568,3.126h-9.948l2.558-23.874s-.284-2.842-1.137-3.411S893.455,474.6,893.455,474.6s2.274-4.263,1.421-5.116.853-17.906,1.705-18.474S918.182,451.291,918.182,451.291Z" transform="translate(-652.195 -358.714)" fill="#2f2e41"/>
      <path id="Path_3133" data-name="Path 3133" d="M814.547,596.865,813.41,603.4l11.084-.568-1.421-7.105Z" transform="translate(-564.761 -426.413)" fill="#a0616a"/>
      <circle id="Ellipse_722" data-name="Ellipse 722" cx="8.526" cy="8.526" r="8.526" transform="translate(243.249 37.439)" fill="#feb8b8"/>
      <path id="Path_3134" data-name="Path 3134" d="M936.7,293.5l.853,10.232-9.095,4.263s1.563-9.521.426-12.079Z" transform="translate(-677.248 -246.112)" fill="#feb8b8"/>
      <path id="Path_3135" data-name="Path 3135" d="M903.264,323.173l.853-3.411,11.653-4.263s1.137,0,.853,1.99-.284,1.705-.284,1.705,3.979,1.705,4.263,4.547,4.832,3.695,4.547,7.958a15.1,15.1,0,0,1-1.705,6.537s1.421,3.411-.853,5.4c0,0-2.274,3.979-1.137,6.821s2.558,7.674-.568,6.821S896.158,355,896.158,355s-3.126-11.653.284-15.916c0,0,0-2.558,2.558-7.674S903.264,323.173,903.264,323.173Z" transform="translate(-653.193 -261.859)" fill="#3dc9b9"/>
      <path id="Path_3136" data-name="Path 3136" d="M936.974,449.772s-3.695,15.632-8.242,17.337c0,0-.853,11.369-5.684,10.8s0-10.8,0-10.8l5.4-19.611Z" transform="translate(-671.84 -356.343)" fill="#feb8b8"/>
      <path id="Path_3137" data-name="Path 3137" d="M896.366,330.861s-4.263-6.821-5.4-5.684-6.821,4.547-6.537,6.821,2.842,2.274,2.842,2.274l5.969,4.547Z" transform="translate(-645.727 -268.695)" fill="#3dc9b9"/>
      <path id="Path_3138" data-name="Path 3138" d="M891.139,524.5l-3.411,2.452-2.274,24.265s8.242,32.969,10.516,33.253,11.653.284,11.369-.568-1.705-4.263-1.705-5.116-2.964-7.672-2.964-7.672l-3.857-15.918.853-12.505Z" transform="translate(-646.469 -411.458)" fill="#2f2e41"/>
      <path id="Path_3139" data-name="Path 3139" d="M888.245,734.019s11.937-3.695,12.505-2.842,4.36,9.446-.946,10.407-24.349,2.667-24.349.109.568-4.263,2.274-4.263,9.379-3.695,9.948-4.547S888.245,734.019,888.245,734.019Z" transform="translate(-639.311 -559.304)" fill="#2f2e41"/>
      <path id="Path_3140" data-name="Path 3140" d="M914.5,254.888a.842.842,0,0,0-1.139-1.125l-.015.009a1.475,1.475,0,0,0-.693,1.475c-1.025-1.023-.27-3.074-1.377-4.006-.512-.432-1.345-.527-1.608-1.143-.153-.359-.049-.784-.184-1.15a1.667,1.667,0,0,0-1.415-.856,13.736,13.736,0,0,0-5.389.642,3.779,3.779,0,0,0-1.8.827,6.353,6.353,0,0,0-.976,1.863c-.305.636-2.307.579-3.007.489-.243-.691,1.554-.743,1.7-1.461.4-1.962-1-4.048-.31-5.93a4.767,4.767,0,0,1,2.576-2.412,13.673,13.673,0,0,1,9.674-.826,2.149,2.149,0,0,1,.894.432c.413.386.49,1,.765,1.5.627,1.125,2.113,1.392,3.116,2.2,1.518,1.224,1.689,3.434,1.738,5.383a6.626,6.626,0,0,1-.36,2.9,2.267,2.267,0,0,1-2.319,1.438C914.418,255.059,914.461,254.976,914.5,254.888Z" transform="translate(-654.644 -208.362)" fill="#2f2e41"/>
      <path id="Path_3141" data-name="Path 3141" d="M943.5,352.522a6.056,6.056,0,0,1,7.392.376c1.959,1.665,4.066,4.049,3.912,6.518-.284,4.547-1.99,23.306-4.263,23.59s-10.516-1.99-10.516-3.411,1.99-3.126,1.99-3.126L939.6,361.974a9.58,9.58,0,0,1,3.774-9.362Z" transform="translate(-685.125 -287.586)" fill="#3dc9b9"/>
      <path id="Path_3142" data-name="Path 3142" d="M546.5,126.771H478.113a14.538,14.538,0,0,0-14.182,11.34L429.376,291.38A11.75,11.75,0,0,0,440.26,305.7l70.3,3.464A15.522,15.522,0,0,0,526.6,296.422L546.2,188.06l1.458.417,3.75-20.539-1.5-.375,5.471-30.248a8.951,8.951,0,0,0-8.882-10.544Z" transform="translate(-319.809 -126.771)" fill="#3f3d56"/>
      <path id="Path_3143" data-name="Path 3143" d="M504.538,138.4h-7.983a10.047,10.047,0,0,0-9.816,7.905L453.572,298.32a6.225,6.225,0,0,0,5.675,7.539l70.075,4.593a8.062,8.062,0,0,0,8.462-6.616l28.3-157.125a7.061,7.061,0,0,0-6.95-8.313h-7.573a3.333,3.333,0,0,0-3.218,2.466h0a2.942,2.942,0,0,1-2.841,2.177H509.552a5.029,5.029,0,0,1-5.014-4.644Z" transform="translate(-337.231 -135.093)" fill="#95dde5"/>
      <rect id="Rectangle_3680" data-name="Rectangle 3680" width="72.511" height="0.357" transform="translate(144.982 42.596)" fill="#2f2e41"/>
      <rect id="Rectangle_3681" data-name="Rectangle 3681" width="73.225" height="0.357" transform="translate(142.124 54.205)" fill="#2f2e41"/>
      <path id="Path_3144" data-name="Path 3144" d="M683.525,135.285l-1.648-2.2.286-.214,1.424,1.9,5.487-4.489.226.277Z" transform="translate(-470.611 -93.255)" fill="#2f2e41"/>
      <path id="Path_3145" data-name="Path 3145" d="M650.221,317.517l-1.648-2.2.286-.214,1.424,1.9,5.487-4.489.226.277Z" transform="translate(-446.773 -223.693)" fill="#2f2e41"/>
      <rect id="Rectangle_3682" data-name="Rectangle 3682" width="0.357" height="75.921" transform="translate(134.084 94.21) rotate(-88.787)" fill="#2f2e41"/>
      <rect id="Rectangle_3683" data-name="Rectangle 3683" width="0.357" height="77.353" transform="matrix(0.023, -1, 1, 0.023, 131.761, 104.749)" fill="#2f2e41"/>
      <path id="Path_3146" data-name="Path 3146" d="M589.582,557.677a16.967,16.967,0,0,1-33.934,0c0-.213,0-.423.013-.634a16.965,16.965,0,1,1,33.924.634Z" transform="translate(-410.398 -422.835)" opacity="0.1"/>
      <path id="Path_3148" data-name="Path 3148" d="M482.027,444.542l-6.032-8.042,1.429-1.072,4.914,6.552,19.346-15.828,1.131,1.382Z" transform="translate(-323.244 -305.033)" fill="#f2f2f2"/>
    </g>
  </g>
</svg>
