<svg xmlns="http://www.w3.org/2000/svg" width="287.436" height="188.496" viewBox="0 0 287.436 188.496">
  <g id="Group_8264" data-name="Group 8264" transform="translate(72.28 -236.001)">
    <g id="Group_8227" data-name="Group 8227" transform="translate(-72.28 285.548)" opacity="0.1">
      <ellipse id="Ellipse_656" data-name="Ellipse 656" cx="4.694" cy="6.139" rx="4.694" ry="6.139" transform="translate(17.677 126.67)" fill="#3f3d56"/>
      <path id="Path_2851" data-name="Path 2851" d="M664.165,437.215a7.407,7.407,0,0,0,.976-3.751c0-3.392-2.1-6.144-4.688-6.144s-4.694,2.758-4.694,6.144a7.352,7.352,0,0,0,.982,3.751,7.666,7.666,0,0,0,0,7.507,7.667,7.667,0,0,0,0,7.507,7.352,7.352,0,0,0-.982,3.751c0,3.392,2.1,6.144,4.694,6.144s4.688-2.758,4.688-6.144a7.407,7.407,0,0,0-.976-3.751,7.721,7.721,0,0,0,0-7.507A7.722,7.722,0,0,0,664.165,437.215Z" transform="translate(-638.088 -330.677)" fill="#3f3d56"/>
      <ellipse id="Ellipse_657" data-name="Ellipse 657" cx="4.694" cy="6.139" rx="4.694" ry="6.139" transform="translate(17.677 89.142)" fill="#3f3d56"/>
      <ellipse id="Ellipse_658" data-name="Ellipse 658" cx="4.694" cy="6.139" rx="4.694" ry="6.139" transform="translate(17.677 81.635)" fill="#3f3d56"/>
      <path id="Path_2852" data-name="Path 2852" d="M628.53,288.51a21.5,21.5,0,0,1-1.748-2.57l12.327-2.024-13.331.1a22.526,22.526,0,0,1-.43-17.81l17.887,9.283-16.5-12.134A22.476,22.476,0,1,1,663.852,288.5a22.732,22.732,0,0,1,2.565,4.1l-16,8.312,17.06-5.725a22.482,22.482,0,0,1-3.624,21.1,22.471,22.471,0,1,1-35.3,0,22.471,22.471,0,0,1,0-27.788Z" transform="translate(-623.72 -252.103)" fill="#9adee7"/>
      <path id="Path_2853" data-name="Path 2853" d="M668.67,343.031a22.377,22.377,0,0,1-4.81,13.894,22.471,22.471,0,1,1-35.3,0C625.538,353.1,668.67,340.51,668.67,343.031Z" transform="translate(-623.729 -292.73)" opacity="0.1"/>
    </g>
    <g id="Group_8228" data-name="Group 8228" transform="translate(154.865 236.001)" opacity="0.1">
      <ellipse id="Ellipse_659" data-name="Ellipse 659" cx="6.277" cy="8.218" rx="6.277" ry="8.218" transform="translate(24.081 169.649)" fill="#3f3d56"/>
      <path id="Path_2854" data-name="Path 2854" d="M1080.5,410.233a9.93,9.93,0,0,1-1.313-5.025c0-4.539,2.813-8.218,6.282-8.218s6.277,3.679,6.277,8.218a9.929,9.929,0,0,1-1.313,5.025,10.264,10.264,0,0,1,0,10.044,10.264,10.264,0,0,1,0,10.044,9.9,9.9,0,0,1,1.313,5.025c0,4.534-2.813,8.218-6.277,8.218s-6.282-3.684-6.282-8.218a9.893,9.893,0,0,1,1.313-5.025,10.265,10.265,0,0,1,0-10.044A10.265,10.265,0,0,1,1080.5,410.233Z" transform="translate(-1055.115 -267.528)" fill="#3f3d56"/>
      <ellipse id="Ellipse_660" data-name="Ellipse 660" cx="6.277" cy="8.218" rx="6.277" ry="8.218" transform="translate(24.081 119.429)" fill="#3f3d56"/>
      <ellipse id="Ellipse_661" data-name="Ellipse 661" cx="6.277" cy="8.218" rx="6.277" ry="8.218" transform="translate(24.081 109.385)" fill="#3f3d56"/>
      <path id="Path_2855" data-name="Path 2855" d="M1089.4,211.133a29.3,29.3,0,0,0,2.339-3.442l-16.492-2.708,17.838.132a30.126,30.126,0,0,0,.551-23.828L1069.7,193.7l22.063-16.227a30.077,30.077,0,1,0-49.641,33.645,30.082,30.082,0,0,0-3.431,5.483l21.417,11.153-22.829-7.661a30.076,30.076,0,0,0,4.848,28.24,30.071,30.071,0,1,0,47.269,0,30.071,30.071,0,0,0,0-37.186Z" transform="translate(-1035.541 -162.271)" fill="#9adee7"/>
      <path id="Path_2856" data-name="Path 2856" d="M1035.81,284.21a29.933,29.933,0,0,0,6.437,18.593,30.071,30.071,0,1,0,47.269,0C1093.547,297.684,1035.81,280.834,1035.81,284.21Z" transform="translate(-1035.661 -216.754)" opacity="0.1"/>
    </g>
    <g id="Group_8229" data-name="Group 8229" transform="translate(102.034 282.239)" opacity="0.1">
      <ellipse id="Ellipse_662" data-name="Ellipse 662" cx="4.694" cy="6.139" rx="4.694" ry="6.139" transform="translate(17.9 126.67)" fill="#3f3d56"/>
      <path id="Path_2857" data-name="Path 2857" d="M973.206,431.215a7.407,7.407,0,0,1-.976-3.751c0-3.392,2.1-6.144,4.688-6.144s4.694,2.758,4.694,6.144a7.352,7.352,0,0,1-.982,3.751,7.667,7.667,0,0,1,0,7.507,7.666,7.666,0,0,1,0,7.507,7.352,7.352,0,0,1,.982,3.751c0,3.392-2.1,6.144-4.694,6.144s-4.688-2.758-4.688-6.144a7.406,7.406,0,0,1,.976-3.751,7.722,7.722,0,0,1,0-7.507,7.722,7.722,0,0,1,0-7.507Z" transform="translate(-954.319 -324.677)" fill="#3f3d56"/>
      <ellipse id="Ellipse_663" data-name="Ellipse 663" cx="4.694" cy="6.139" rx="4.694" ry="6.139" transform="translate(17.9 89.142)" fill="#3f3d56"/>
      <ellipse id="Ellipse_664" data-name="Ellipse 664" cx="4.694" cy="6.139" rx="4.694" ry="6.139" transform="translate(17.9 81.635)" fill="#3f3d56"/>
      <path id="Path_2858" data-name="Path 2858" d="M979.912,282.51a21.506,21.506,0,0,0,1.748-2.57l-12.327-2.024,13.331.1a22.525,22.525,0,0,0,.43-17.81l-17.887,9.283,16.5-12.134A22.476,22.476,0,1,0,944.59,282.5a22.733,22.733,0,0,0-2.565,4.1l16,8.312-17.027-5.72a22.482,22.482,0,0,0,3.624,21.1,22.471,22.471,0,1,0,35.3,0,22.471,22.471,0,0,0,0-27.788Z" transform="translate(-939.756 -246.103)" fill="#9adee7"/>
      <path id="Path_2859" data-name="Path 2859" d="M939.791,337.031a22.377,22.377,0,0,0,4.81,13.894,22.471,22.471,0,1,0,35.3,0C982.923,347.1,939.791,334.51,939.791,337.031Z" transform="translate(-939.767 -286.73)" opacity="0.1"/>
    </g>
  </g>
</svg>
