<svg xmlns="http://www.w3.org/2000/svg" width="14.638" height="14.642" viewBox="0 0 14.638 14.642">
  <path id="Icon_ionic-ios-settings" data-name="Icon ionic-ios-settings" d="M16.554,10.444a1.884,1.884,0,0,1,1.208-1.757,7.466,7.466,0,0,0-.9-2.177,1.909,1.909,0,0,1-.766.164,1.879,1.879,0,0,1-1.719-2.645,7.444,7.444,0,0,0-2.173-.9,1.882,1.882,0,0,1-3.515,0,7.466,7.466,0,0,0-2.177.9A1.879,1.879,0,0,1,4.791,6.674a1.847,1.847,0,0,1-.766-.164,7.631,7.631,0,0,0-.9,2.18,1.883,1.883,0,0,1,0,3.515,7.466,7.466,0,0,0,.9,2.177,1.88,1.88,0,0,1,2.482,2.482,7.51,7.51,0,0,0,2.177.9,1.879,1.879,0,0,1,3.507,0,7.466,7.466,0,0,0,2.177-.9,1.882,1.882,0,0,1,2.482-2.482,7.51,7.51,0,0,0,.9-2.177A1.893,1.893,0,0,1,16.554,10.444ZM10.478,13.49a3.05,3.05,0,1,1,3.05-3.05A3.049,3.049,0,0,1,10.478,13.49Z" transform="translate(-3.125 -3.125)" fill="#a6a6a6"/>
</svg>
