<?xml version="1.0" standalone="no"?>
<!DOCTYPE svg PUBLIC "-//W3C//DTD SVG 20010904//EN"
 "http://www.w3.org/TR/2001/REC-SVG-20010904/DTD/svg10.dtd">
<svg version="1.0" xmlns="http://www.w3.org/2000/svg"
 width="96.000000pt" height="96.000000pt" viewBox="0 0 96.000000 96.000000"
 preserveAspectRatio="xMidYMid meet">

<g transform="translate(0.000000,96.000000) scale(0.100000,-0.100000)"
fill="#000000" stroke="none">
<path d="M515 768 c-3 -13 -4 -151 -3 -308 l3 -285 70 0 70 0 3 285 c1 157 0
295 -3 308 -5 20 -11 22 -70 22 -59 0 -65 -2 -70 -22z m115 -18 c0 -17 -7 -20
-45 -20 -38 0 -45 3 -45 20 0 17 7 20 45 20 38 0 45 -3 45 -20z m0 -300 l0
-260 -45 0 -45 0 0 260 0 260 45 0 45 0 0 -260z"/>
<path d="M305 588 c-3 -13 -4 -111 -3 -218 l3 -195 70 0 70 0 3 195 c1 107 0
205 -3 218 -5 20 -11 22 -70 22 -59 0 -65 -2 -70 -22z m115 -18 c0 -17 -7 -20
-45 -20 -38 0 -45 3 -45 20 0 17 7 20 45 20 38 0 45 -3 45 -20z m0 -210 l0
-170 -45 0 -45 0 0 170 0 170 45 0 45 0 0 -170z"/>
<path d="M725 498 c-3 -13 -4 -90 -3 -173 l3 -150 70 0 70 0 3 150 c4 203 7
195 -73 195 -59 0 -65 -2 -70 -22z m115 -18 c0 -17 -7 -20 -45 -20 -38 0 -45
3 -45 20 0 17 7 20 45 20 38 0 45 -3 45 -20z m0 -165 l0 -125 -45 0 -45 0 0
125 0 125 45 0 45 0 0 -125z"/>
<path d="M95 438 c-3 -13 -4 -77 -3 -143 l3 -120 70 0 70 0 3 120 c4 169 6
165 -73 165 -59 0 -65 -2 -70 -22z m115 -18 c0 -17 -7 -20 -45 -20 -38 0 -45
3 -45 20 0 17 7 20 45 20 38 0 45 -3 45 -20z m0 -135 l0 -95 -45 0 -45 0 0 95
0 95 45 0 45 0 0 -95z"/>
</g>
</svg>
