<svg xmlns="http://www.w3.org/2000/svg" width="23.958" height="21.875" viewBox="0 0 23.958 21.875">
  <path id="Icon_material-add-a-photo" data-name="Icon material-add-a-photo" d="M3.125,4.167V1.042H5.208V4.167H8.333V6.25H5.208V9.375H3.125V6.25H0V4.167Zm3.125,6.25V7.292H9.375V4.167h7.292L18.573,6.25h3.3a2.089,2.089,0,0,1,2.083,2.083v12.5a2.089,2.089,0,0,1-2.083,2.083H5.208a2.089,2.089,0,0,1-2.083-2.083V10.417H6.25Zm7.292,9.375a5.208,5.208,0,1,0-5.208-5.208A5.21,5.21,0,0,0,13.542,19.792Zm-3.333-5.208a3.333,3.333,0,1,0,3.333-3.333,3.33,3.33,0,0,0-3.333,3.333Z" transform="translate(0 -1.042)"/>
</svg>
