<svg xmlns="http://www.w3.org/2000/svg" width="20.598" height="18.306" viewBox="0 0 20.598 18.306">
  <path id="Icon_awesome-edit" data-name="Icon awesome-edit" d="M14.4,2.979,17.623,6.2a.35.35,0,0,1,0,.493l-7.81,7.81-3.319.368a.7.7,0,0,1-.769-.769l.368-3.319,7.81-7.81A.35.35,0,0,1,14.4,2.979ZM20.19,2.16,18.445.415a1.4,1.4,0,0,0-1.974,0L15.205,1.681a.35.35,0,0,0,0,.493L18.431,5.4a.35.35,0,0,0,.493,0L20.19,4.134a1.4,1.4,0,0,0,0-1.974ZM13.732,12.384v3.64H2.289V4.581h8.218a.44.44,0,0,0,.3-.125l1.43-1.43a.429.429,0,0,0-.3-.733H1.716A1.717,1.717,0,0,0,0,4.009V16.6a1.717,1.717,0,0,0,1.716,1.716H14.3A1.717,1.717,0,0,0,16.021,16.6V10.953a.43.43,0,0,0-.733-.3l-1.43,1.43A.44.44,0,0,0,13.732,12.384Z" transform="translate(0 -0.007)" fill="#929292"/>
</svg>
