<?xml version="1.0" standalone="no"?>
<!DOCTYPE svg PUBLIC "-//W3C//DTD SVG 20010904//EN"
 "http://www.w3.org/TR/2001/REC-SVG-20010904/DTD/svg10.dtd">
<svg version="1.0" xmlns="http://www.w3.org/2000/svg"
 width="512.000000pt" height="444.000000pt" viewBox="0 0 512.000000 444.000000"
 preserveAspectRatio="xMidYMid meet">

<g transform="translate(0.000000,444.000000) scale(0.100000,-0.100000)"
fill="#000000" stroke="none">
<path d="M0 2220 l0 -2220 2560 0 2560 0 0 2220 0 2220 -2560 0 -2560 0 0
-2220z m1547 -1023 c-1 -562 -2 -102 -2 1023 0 1125 1 1585 2 1022 2 -562 2
-1482 0 -2045z m2213 1283 l0 -770 595 0 595 0 0 -770 0 -770 -1195 0 -1195 0
0 1540 0 1540 600 0 600 0 0 -770z m-2570 -1200 l0 -1110 -425 0 -425 0 0
1110 0 1110 425 0 425 0 0 -1110z"/>
</g>
</svg>
