<svg xmlns="http://www.w3.org/2000/svg" width="142.635" height="54.34" viewBox="0 0 142.635 54.34">
  <g id="Group_8098" data-name="Group 8098" transform="translate(-645.011 -673.636)">
    <path id="Rectangle_3602" data-name="Rectangle 3602" d="M5.65,0h0a5.4,5.4,0,0,1,5.4,5.4v0a5.65,5.65,0,0,1-5.65,5.65H0a0,0,0,0,1,0,0V5.65A5.65,5.65,0,0,1,5.65,0Z" transform="translate(709.622 690.12)" fill="#3dc9b9"/>
    <path id="Path_2817" data-name="Path 2817" d="M830.267,733.216s1.613,10.829.587,14.707c-1.374,5.192,13.49.092,14.164-12.552S832.968,725.141,830.267,733.216Z" transform="translate(-111.524 -26.915)" fill="#3dc9b9"/>
    <path id="Path_2818" data-name="Path 2818" d="M824.136,726.062s-2.468-3.881,5.864-8.285,22.019-7.618,27.733-2.976-8.332,13.45-10.831,13.45c0,0,7.617.119,6.189,4.88s-8.689,9.165-23.329,8.213c0,0-5.118,4.642-11.188,5.118,0,0,5.46-4.053,5.341-8.1l11.209-3.663-2.149,3.075s7.21.324,10.831-1.666c3.14-1.726,1.871-3.551.357-4.285s-10.055-3.3-19.815,2.528l-.238-4.166s6.729-5.841,14.108-5.96l-.244,2.718s12.854-1.786,12.854-7.023S834.134,717.73,824.136,726.062Z" transform="translate(-104.481 -18.485)"/>
    <g id="Group_8097" data-name="Group 8097" transform="translate(707.043 686.219)">
      <path id="Path_2819" data-name="Path 2819" d="M802.411,703.08h0l-1.565,9.708,9.83-.279a7.239,7.239,0,0,0,4.034-11.872h0A7.239,7.239,0,0,0,802.411,703.08Zm9.308.179h0a3.323,3.323,0,0,1-1.852,5.449h0l-4.512.128.718-4.456h0A3.323,3.323,0,0,1,811.719,703.259Z" transform="translate(-800.846 -696.054)"/>
      <path id="Path_2820" data-name="Path 2820" d="M802.526,692.853s3.071,2.245,2.912,5.419,3.833-1.928,3.833-1.928A7.985,7.985,0,0,0,802.526,692.853Z" transform="translate(-801.858 -692.853)"/>
    </g>
    <text id="Mem" transform="translate(645.011 700.636)" font-size="25" font-family="SegoeUI, Segoe UI"><tspan x="0" y="0">Mem</tspan></text>
    <text id="eez" transform="translate(749.646 720.349)" font-size="25" font-family="SegoeUI, Segoe UI"><tspan x="0" y="0">eez</tspan></text>
  </g>
</svg>
